<svg width="132" height="130" xmlns="http://www.w3.org/2000/svg" xmlns:xlink="http://www.w3.org/1999/xlink" xml:space="preserve" overflow="hidden"><defs><clipPath id="clip0"><rect x="160" y="320" width="132" height="130"/></clipPath><clipPath id="clip1"><rect x="161" y="320" width="130" height="130"/></clipPath><clipPath id="clip2"><rect x="161" y="320" width="130" height="130"/></clipPath><clipPath id="clip3"><rect x="161" y="320" width="130" height="130"/></clipPath></defs><g clip-path="url(#clip0)" transform="translate(-160 -320)"><g clip-path="url(#clip1)"><g clip-path="url(#clip2)"><g clip-path="url(#clip3)"><path d="M261.073 386.76C263.51 396.646 253.354 406.396 243.333 402.333 234.938 399.354 231.688 389.604 237.51 381.208 250.646 363.74 241.031 336.25 219.229 326.771 229.115 345.458 213.948 362.656 205.281 369.833 196.615 377.01 190.792 384.458 189.031 388.792 180.229 410.188 193.365 430.635 202.302 435.51 198.24 426.302 194.448 408.698 210.427 392.177 210.427 392.177 205.823 409.781 215.844 421.969 225.865 434.156 225.729 443.229 225.729 443.229 241.302 443.229 256.062 433.885 262.292 418.583 267.031 409.51 267.438 395.156 261.073 386.76" fill="#FFFFFF" fill-rule="nonzero" fill-opacity="1"/></g></g></g></g></svg>