<svg width="97" height="96" xmlns="http://www.w3.org/2000/svg" xmlns:xlink="http://www.w3.org/1999/xlink" xml:space="preserve" overflow="hidden"><defs><clipPath id="clip0"><rect x="108" y="56" width="97" height="96"/></clipPath><clipPath id="clip1"><rect x="109" y="56" width="96" height="96"/></clipPath><clipPath id="clip2"><rect x="109" y="56" width="96" height="96"/></clipPath><clipPath id="clip3"><rect x="109" y="56" width="96" height="96"/></clipPath></defs><g clip-path="url(#clip0)" transform="translate(-108 -56)"><g clip-path="url(#clip1)"><g clip-path="url(#clip2)"><g clip-path="url(#clip3)"><path d="M181.48 80.66C181.072 72.3858 174.034 66.009 165.759 66.4171 158.201 66.7899 152.104 72.7339 151.54 80.28 151.535 80.3766 151.535 80.4734 151.54 80.57 145.803 81.8688 140.564 84.7959 136.45 89 126 99.46 124.45 114.9 133.06 123.49 136.665 126.986 141.478 128.96 146.5 129L146.5 134C145.395 134 144.5 134.895 144.5 136 144.5 137.105 145.395 138 146.5 138L147.7 138 151.1 141.4C151.834 142.173 153.055 142.205 153.828 141.471 153.853 141.448 153.877 141.424 153.9 141.4 154.673 140.666 154.705 139.445 153.971 138.672 153.948 138.647 153.924 138.623 153.9 138.6L153.3 138 155.5 138C156.605 138 157.5 137.105 157.5 136 157.5 134.895 156.605 134 155.5 134L150.5 134 150.5 128.77C151.853 128.587 153.19 128.303 154.5 127.92L154.5 130C153.395 130 152.5 130.895 152.5 132L155.5 132C157.709 132.005 159.496 133.799 159.492 136.008 159.491 136.52 159.392 137.026 159.2 137.5 159.564 137.809 160.023 137.985 160.5 138 161.027 137.992 161.531 137.777 161.9 137.4 162.673 136.666 162.705 135.445 161.971 134.672 161.948 134.647 161.924 134.623 161.9 134.6L161.3 134 163.5 134C164.605 134 165.5 133.105 165.5 132 165.5 130.895 164.605 130 163.5 130L158.5 130 158.5 126.4C161.847 124.824 164.893 122.675 167.5 120.05 174.7 112.84 177.66 103.26 176 95.2 176.065 94.3846 175.963 93.5645 175.7 92.79 178.132 90.8788 179.913 88.2627 180.8 85.3L180.85 85.2C182.679 84.7212 184.591 84.6529 186.45 85 185.42 83.23 183 81.66 181.48 80.66ZM147.31 110.6C145.844 110.913 144.349 111.074 142.85 111.08 140.19 111.18 137.561 110.484 135.3 109.08 133.928 108.214 132.978 106.815 132.68 105.22 132.456 103.32 133.065 101.417 134.35 100 134.698 99.5692 135.329 99.5021 135.76 99.85 136.191 100.198 136.258 100.829 135.91 101.26 135.005 102.243 134.552 103.559 134.66 104.89 134.868 105.945 135.51 106.863 136.43 107.42 138.76 109.03 142.77 109.49 146.91 108.63 153.06 107.34 157.81 103.43 157.27 100.08 156.79 97.08 153.27 94.35 148.8 93.46 148.248 93.3495 147.889 92.8123 148 92.26 148.111 91.7077 148.648 91.3495 149.2 91.46 154.5 92.52 158.63 95.92 159.2 99.73 160 104.31 154.73 109.06 147.31 110.6Z" fill="#9B2821" fill-rule="nonzero" fill-opacity="1"/></g></g></g></g></svg>