<svg width="96" height="96" xmlns="http://www.w3.org/2000/svg" xmlns:xlink="http://www.w3.org/1999/xlink" xml:space="preserve" overflow="hidden"><defs><clipPath id="clip0"><rect x="240" y="56" width="96" height="96"/></clipPath></defs><g clip-path="url(#clip0)" transform="translate(-240 -56)"><path d="M309.3 93.1 307.7 94.7C307.3 95.1 306.7 95.1 306.3 94.7L304 92.4 301.7 94.7C301.3 95.1 300.7 95.1 300.3 94.7L298.3 92.7C296.8 97 292.8 100 288 100L284 100C271.1 100 271.6 87.4 260.5 87 257.2 86.9 254.2 89.3 254 92.7 253.9 94.8 254.9 96.7 256.5 97.9 256.2 98.5 256 99.2 256 100 256 102.1 257.3 103.9 259.2 104.7 259.1 105.1 259 105.5 259 106 259 108 260.2 109.7 261.9 110.5 264.6 120 272.9 127.1 283 127.9L283 134C281.9 134 281 134.9 281 136 281 137.1 281.9 138 283 138L284.2 138 287.6 141.4C288 141.8 288.5 142 289 142 289.5 142 290 141.8 290.4 141.4 291.2 140.6 291.2 139.4 290.4 138.6L289.8 138 292 138C293.1 138 294 137.1 294 136 294 134.9 293.1 134 292 134L287 134 287 128C288.4 127.9 289.7 127.8 291 127.5L291 130C289.9 130 289 130.9 289 132L292 132C294.2 132 296 133.8 296 136 296 136.5 295.9 137 295.7 137.5 296.1 137.8 296.5 138 297 138 297.5 138 298 137.8 298.4 137.4 299.2 136.6 299.2 135.4 298.4 134.6L297.8 134 300 134C301.1 134 302 133.1 302 132 302 130.9 301.1 130 300 130L295 130 295 126.4C304.4 122.9 311 114.2 311 104 311 101.9 310.7 100 310.2 98 309.8 96.4 309.5 94.8 309.3 93.1Z" fill="#9B2821" fill-rule="nonzero" fill-opacity="1"/><path d="M316.9 77.6C316.6 75.3 315.4 73.3 313.7 72 314.4 71.6 314.9 70.8 315 70 315.1 69.6 315.1 69.1 314.9 68.7 314.6 67.9 314 67.3 313.2 67.1 312.2 66.9 311.4 67.2 310.8 67.8 310.3 66.8 309.3 66.1 308.1 66.1 306.9 66.1 305.9 66.8 305.4 67.8 304.8 67.2 303.9 66.9 303 67.1 302.2 67.3 301.5 67.9 301.3 68.7 301 69.1 301 69.6 301.1 70 301.1 70 301.1 70 301.1 70.1 300.6 70 300 70 299.3 70.4 298.6 70.9 298 71.7 298 72.6 298 72.8 298 72.9 298.1 73.1 298.3 74.1 298.9 75 299.9 75.4 299.3 76.4 299 77.7 299 79L299 89C299 89.5 299 90 298.9 90.5L301 92.6 303.3 90.3C303.7 89.9 304.3 89.9 304.7 90.3L307 92.6 309.1 90.5C309.1 89.6 309 88.8 309 87.9 312.4 87.5 315.2 85.3 316.4 82.2 319.4 81.4 322 82 322 82 320.9 80.2 318.4 78.6 316.9 77.6Z" fill="#9B2821" fill-rule="nonzero" fill-opacity="1"/></g></svg>