<svg width="98" height="96" xmlns="http://www.w3.org/2000/svg" xmlns:xlink="http://www.w3.org/1999/xlink" xml:space="preserve" overflow="hidden"><defs><clipPath id="clip0"><rect x="370" y="56" width="98" height="96"/></clipPath><clipPath id="clip1"><rect x="371" y="56" width="96" height="96"/></clipPath><clipPath id="clip2"><rect x="371" y="56" width="96" height="96"/></clipPath><clipPath id="clip3"><rect x="371" y="56" width="96" height="96"/></clipPath></defs><g clip-path="url(#clip0)" transform="translate(-370 -56)"><g clip-path="url(#clip1)"><g clip-path="url(#clip2)"><g clip-path="url(#clip3)"><path d="M453.39 69.61C444.573 60.8006 430.287 60.8006 421.47 69.61 416.21 74.87 414.1 89.61 411.03 95.16 405.79 104.69 400.78 106.38 402.03 110.16L395.56 116.64C395.38 116.43 395.19 116.22 395 116.03 390.919 111.934 384.289 111.922 380.193 116.003 376.097 120.085 376.085 126.714 380.166 130.81 382.135 132.786 384.811 133.895 387.6 133.89 388.146 133.891 388.69 133.85 389.23 133.77 389.15 134.31 389.109 134.854 389.11 135.4 389.092 141.177 393.761 145.874 399.538 145.892 405.314 145.91 410.012 141.242 410.03 135.465 410.039 132.662 408.922 129.972 406.93 128 406.73 127.81 406.53 127.62 406.32 127.45L412.8 121C416.67 122.22 418.3 117.08 427.96 112.07 433.64 109.12 448.13 106.77 453.39 101.52 462.193 92.7046 462.193 78.4254 453.39 69.61ZM401.74 126.41C400.958 127.19 400.957 128.457 401.737 129.238 401.898 129.399 402.085 129.532 402.29 129.63 402.959 129.938 403.571 130.357 404.1 130.87 406.622 133.394 406.62 137.484 404.096 140.006 401.572 142.527 397.482 142.526 394.96 140.002 392.44 137.479 392.44 133.392 394.96 130.87 395.753 130.089 395.762 128.812 394.98 128.02 394.198 127.228 392.922 127.218 392.13 128 389.447 130.351 385.365 130.082 383.014 127.399 380.884 124.968 380.878 121.338 383 118.9 385.528 116.385 389.612 116.385 392.14 118.9 392.652 119.428 393.068 120.04 393.37 120.71 393.839 121.71 395.03 122.141 396.03 121.672 396.242 121.572 396.435 121.436 396.6 121.27L404.2 113.67C404.87 114.45 405.69 115.33 406.7 116.33 407.71 117.33 408.57 118.15 409.35 118.82Z" fill="#FA6171" fill-rule="nonzero" fill-opacity="1"/></g></g></g></g></svg>